<mxfile host="app.diagrams.net" modified="2023-11-27T15:44:24.426Z" agent="Mozilla/5.0 (Windows NT 10.0; Win64; x64) AppleWebKit/537.36 (KHTML, like Gecko) Chrome/119.0.0.0 Safari/537.36 Edg/119.0.0.0" etag="qJJwMD8nZMLy1tXVaxBp" version="22.1.4" type="github">
  <diagram name="Page-1" id="U_SESXzfFQB2vHG1DU4S">
    <mxGraphModel dx="1283" dy="526" grid="1" gridSize="10" guides="1" tooltips="1" connect="1" arrows="1" fold="1" page="1" pageScale="1" pageWidth="850" pageHeight="1100" math="0" shadow="0">
      <root>
        <mxCell id="0" />
        <mxCell id="1" parent="0" />
        <mxCell id="sIPrdvZB-OkvhUoF-7lL-1" value="Administrator" style="shape=umlActor;verticalLabelPosition=bottom;verticalAlign=top;html=1;outlineConnect=0;" parent="1" vertex="1">
          <mxGeometry x="210" y="85" width="30" height="60" as="geometry" />
        </mxCell>
        <mxCell id="sIPrdvZB-OkvhUoF-7lL-8" value="" style="endArrow=none;html=1;strokeWidth=2;rounded=0;exitX=0;exitY=0.5;exitDx=0;exitDy=0;entryX=1;entryY=0.5;entryDx=0;entryDy=0;" parent="1" edge="1">
          <mxGeometry width="50" height="50" relative="1" as="geometry">
            <mxPoint x="570" y="120" as="sourcePoint" />
            <mxPoint x="420" y="120" as="targetPoint" />
          </mxGeometry>
        </mxCell>
        <mxCell id="lYP8_AyQFSn0Beweu-Yg-2" value="DosenUI" style="text;html=1;strokeColor=none;fillColor=none;align=center;verticalAlign=middle;whiteSpace=wrap;rounded=0;" parent="1" vertex="1">
          <mxGeometry x="350" y="180" width="60" height="30" as="geometry" />
        </mxCell>
        <mxCell id="lYP8_AyQFSn0Beweu-Yg-3" value="" style="endArrow=classic;html=1;rounded=0;entryX=0;entryY=0;entryDx=0;entryDy=0;" parent="1" edge="1">
          <mxGeometry width="50" height="50" relative="1" as="geometry">
            <mxPoint x="629.0599734300413" y="155.16699323007606" as="sourcePoint" />
            <mxPoint x="681.7157287525379" y="251.71572875253787" as="targetPoint" />
          </mxGeometry>
        </mxCell>
        <mxCell id="lYP8_AyQFSn0Beweu-Yg-5" value="DBorangC" style="text;html=1;strokeColor=none;fillColor=none;align=center;verticalAlign=middle;whiteSpace=wrap;rounded=0;" parent="1" vertex="1">
          <mxGeometry x="560" y="190" width="60" height="30" as="geometry" />
        </mxCell>
        <mxCell id="lYP8_AyQFSn0Beweu-Yg-6" value="(From Use Case View)" style="text;html=1;strokeColor=none;fillColor=none;align=center;verticalAlign=middle;whiteSpace=wrap;rounded=0;" parent="1" vertex="1">
          <mxGeometry x="312.5" y="210" width="135" height="30" as="geometry" />
        </mxCell>
        <mxCell id="lYP8_AyQFSn0Beweu-Yg-7" value="Dosen" style="text;html=1;strokeColor=none;fillColor=none;align=center;verticalAlign=middle;whiteSpace=wrap;rounded=0;" parent="1" vertex="1">
          <mxGeometry x="660" y="330" width="60" height="30" as="geometry" />
        </mxCell>
        <mxCell id="_2LdMQOvEfE5AO5Hixtn-1" value="2.1.1:addDosen($Dosen.$user)" style="text;html=1;strokeColor=none;fillColor=none;align=center;verticalAlign=middle;whiteSpace=wrap;rounded=0;" parent="1" vertex="1">
          <mxGeometry x="500" y="240" width="135" height="30" as="geometry" />
        </mxCell>
        <mxCell id="_2LdMQOvEfE5AO5Hixtn-2" value="" style="endArrow=classic;html=1;rounded=0;" parent="1" edge="1">
          <mxGeometry width="50" height="50" relative="1" as="geometry">
            <mxPoint x="452.5" y="90" as="sourcePoint" />
            <mxPoint x="552.5" y="90" as="targetPoint" />
          </mxGeometry>
        </mxCell>
        <mxCell id="_2LdMQOvEfE5AO5Hixtn-3" value="2.1:addProses" style="text;html=1;strokeColor=none;fillColor=none;align=center;verticalAlign=middle;whiteSpace=wrap;rounded=0;" parent="1" vertex="1">
          <mxGeometry x="435" y="60" width="135" height="30" as="geometry" />
        </mxCell>
        <mxCell id="_2LdMQOvEfE5AO5Hixtn-4" value="1:index" style="text;html=1;strokeColor=none;fillColor=none;align=center;verticalAlign=middle;whiteSpace=wrap;rounded=0;" parent="1" vertex="1">
          <mxGeometry x="420" y="140" width="135" height="30" as="geometry" />
        </mxCell>
        <mxCell id="_2LdMQOvEfE5AO5Hixtn-5" value="" style="endArrow=classic;html=1;rounded=0;" parent="1" edge="1">
          <mxGeometry width="50" height="50" relative="1" as="geometry">
            <mxPoint x="530" y="140" as="sourcePoint" />
            <mxPoint x="447.5" y="140" as="targetPoint" />
          </mxGeometry>
        </mxCell>
        <mxCell id="_2LdMQOvEfE5AO5Hixtn-6" value="(From Actors)" style="text;html=1;strokeColor=none;fillColor=none;align=center;verticalAlign=middle;whiteSpace=wrap;rounded=0;" parent="1" vertex="1">
          <mxGeometry x="177.5" y="180" width="135" height="30" as="geometry" />
        </mxCell>
        <mxCell id="qMunfm5dVyAvW3KR1klr-1" value="" style="ellipse;shape=umlControl;whiteSpace=wrap;html=1;" vertex="1" parent="1">
          <mxGeometry x="570" y="80" width="70" height="80" as="geometry" />
        </mxCell>
        <mxCell id="qMunfm5dVyAvW3KR1klr-2" value="" style="ellipse;shape=umlEntity;whiteSpace=wrap;html=1;" vertex="1" parent="1">
          <mxGeometry x="650" y="240" width="80" height="80" as="geometry" />
        </mxCell>
        <mxCell id="qMunfm5dVyAvW3KR1klr-5" value="" style="shape=umlBoundary;whiteSpace=wrap;html=1;" vertex="1" parent="1">
          <mxGeometry x="315" y="70" width="110" height="90" as="geometry" />
        </mxCell>
        <mxCell id="qMunfm5dVyAvW3KR1klr-6" value="" style="endArrow=block;endFill=1;html=1;edgeStyle=orthogonalEdgeStyle;align=left;verticalAlign=top;rounded=0;exitX=0.5;exitY=0.5;exitDx=0;exitDy=0;exitPerimeter=0;" edge="1" parent="1" source="sIPrdvZB-OkvhUoF-7lL-1">
          <mxGeometry x="-1" relative="1" as="geometry">
            <mxPoint x="222.5" y="114.5" as="sourcePoint" />
            <mxPoint x="315" y="114.5" as="targetPoint" />
            <Array as="points">
              <mxPoint x="315" y="115" />
            </Array>
          </mxGeometry>
        </mxCell>
      </root>
    </mxGraphModel>
  </diagram>
</mxfile>
